<svg width="110" height="99" viewBox="0 0 110 99" fill="none" xmlns="http://www.w3.org/2000/svg">
<path fill-rule="evenodd" clip-rule="evenodd" d="M14.6287 13.2537C13.75 14.1324 13.75 15.5466 13.75 18.375V80.625C13.75 83.4534 13.75 84.8676 14.6287 85.7463C15.5074 86.625 16.9216 86.625 19.75 86.625H32.0833V65.875C32.0833 63.9894 32.0833 63.0466 32.6691 62.4608C33.2549 61.875 34.1977 61.875 36.0833 61.875H69.3333C71.219 61.875 72.1618 61.875 72.7476 62.4608C73.3333 63.0466 73.3333 63.9894 73.3333 65.875V86.625H90.25C93.0784 86.625 94.4926 86.625 95.3713 85.7463C96.25 84.8676 96.25 83.4534 96.25 80.625V29.7657C96.25 29.3271 96.25 29.1077 96.1635 28.9135C96.077 28.7193 95.914 28.5726 95.5879 28.2791L78.4871 12.8884C78.2052 12.6346 78.0642 12.5078 77.8912 12.4414C77.7182 12.375 77.5285 12.375 77.1492 12.375H19.75C16.9216 12.375 15.5074 12.375 14.6287 13.2537Z" fill="#77E1FD"/>
<path d="M73.3335 86.625V65.875C73.3335 63.9894 73.3335 63.0466 72.7477 62.4608C72.1619 61.875 71.2191 61.875 69.3335 61.875H36.0835C34.1979 61.875 33.2551 61.875 32.6693 62.4608C32.0835 63.0466 32.0835 63.9894 32.0835 65.875V86.625" stroke="#6CBCFC" stroke-width="1.2"/>
<path d="M32.0835 33H55.0002" stroke="#6CBCFC" stroke-width="1.2" stroke-linecap="round"/>
<path d="M13.75 18.375C13.75 15.5466 13.75 14.1324 14.6287 13.2537C15.5074 12.375 16.9216 12.375 19.75 12.375H77.1492C77.5285 12.375 77.7182 12.375 77.8912 12.4414C78.0642 12.5078 78.2052 12.6346 78.4871 12.8884L95.5879 28.2791C95.914 28.5726 96.077 28.7193 96.1635 28.9135C96.25 29.1077 96.25 29.3271 96.25 29.7657V80.625C96.25 83.4534 96.25 84.8676 95.3713 85.7463C94.4926 86.625 93.0784 86.625 90.25 86.625H19.75C16.9216 86.625 15.5074 86.625 14.6287 85.7463C13.75 84.8676 13.75 83.4534 13.75 80.625V18.375Z" stroke="#6CBCFC" stroke-width="1.2"/>
</svg>
