<svg width="92" height="90" viewBox="0 0 92 90" fill="none" xmlns="http://www.w3.org/2000/svg">
<g clip-path="url(#clip0_11_1643)">
<path d="M11.5 11.333C11.5 9.67615 12.8431 8.33301 14.5 8.33301H76.1667C76.4428 8.33301 76.6667 8.55687 76.6667 8.83301V22.6663C76.6667 23.7709 75.7712 24.6663 74.6667 24.6663H14.5C12.8431 24.6663 11.5 23.3232 11.5 21.6663V11.333Z" fill="#79E1FD"/>
<path d="M11.5 69.6667V20.6667C11.5 22.8758 13.2909 24.6667 15.5 24.6667H78.5C79.6046 24.6667 80.5 25.5621 80.5 26.6667V44.9333C80.5 45.0162 80.4328 45.0833 80.35 45.0833H63.3333C62.2288 45.0833 61.3333 45.9788 61.3333 47.0833V59.4167C61.3333 60.5212 62.2288 61.4167 63.3333 61.4167H80.35C80.4328 61.4167 80.5 61.4838 80.5 61.5667V71.6667C80.5 72.7712 79.6046 73.6667 78.5 73.6667H15.5C13.2909 73.6667 11.5 71.8758 11.5 69.6667Z" fill="#7E869E" fill-opacity="0.25"/>
<path d="M57.5 47.083C57.5 45.9784 58.3954 45.083 59.5 45.083H80.35C80.4328 45.083 80.5 45.1502 80.5 45.233V61.2663C80.5 61.3492 80.4328 61.4163 80.35 61.4163H59.5C58.3954 61.4163 57.5 60.5209 57.5 59.4163V47.083Z" fill="#79E1FD"/>
</g>
<defs>
<clipPath id="clip0_11_1643">
<rect width="91.978" height="90" fill="white"/>
</clipPath>
</defs>
</svg>
