<svg version="1.2" xmlns="http://www.w3.org/2000/svg" viewBox="0 0 70 66" width="70" height="66">
	<title>wallet-svg</title>
	<defs>
		<clipPath clipPathUnits="userSpaceOnUse" id="cp1">
			<path d="m-11-8h91.98v90h-91.98z"/>
		</clipPath>
	</defs>
	<style>
		.s0 { fill: #79e1fd } 
		.s1 { opacity: .3;fill: #7e869e } 
	</style>
	<g id="Clip-Path" clip-path="url(#cp1)">
		<g id="Layer">
			<path id="Layer" class="s0" d="m0.5 3.3c0-1.6 1.3-3 3-3h61.7c0.2 0 0.5 0.3 0.5 0.5v13.9c0 1.1-0.9 2-2 2h-60.2c-1.7 0-3-1.4-3-3z"/>
			<path id="Layer" class="s1" d="m0.5 61.7v-49c0 2.2 1.8 4 4 4h63c1.1 0 2 0.9 2 2v18.2c0 0.1-0.1 0.2-0.2 0.2h-17c-1.1 0-2 0.9-2 2v12.3c0 1.1 0.9 2 2 2h17c0.1 0 0.2 0.1 0.2 0.2v10.1c0 1.1-0.9 2-2 2h-63c-2.2 0-4-1.8-4-4z"/>
			<path id="Layer" class="s0" d="m46.5 39.1c0-1.1 0.9-2 2-2h20.8c0.1 0 0.2 0.1 0.2 0.1v16.1c0 0-0.1 0.1-0.2 0.1h-20.8c-1.1 0-2-0.9-2-2z"/>
		</g>
	</g>
</svg>