<svg version="1.2" xmlns="http://www.w3.org/2000/svg" viewBox="0 0 84 77" width="84" height="77">
	<title>diskette-svg</title>
	<style>
		.s0 { fill: #77e1fd } 
		.s1 { fill: none;stroke: #6cbcfc;stroke-width: 1.2 } 
		.s2 { fill: none;stroke: #6cbcfc;stroke-linecap: round;stroke-width: 1.2 } 
	</style>
	<path id="Layer" fill-rule="evenodd" class="s0" d="m1.6 2.3c-0.9 0.8-0.9 2.2-0.9 5.1v62.2c0 2.9 0 4.3 0.9 5.1 0.9 0.9 2.3 0.9 5.2 0.9h12.3v-20.7c0-1.9 0-2.9 0.6-3.4 0.6-0.6 1.5-0.6 3.4-0.6h33.2c1.9 0 2.9 0 3.4 0.6 0.6 0.5 0.6 1.5 0.6 3.4v20.7h16.9c2.9 0 4.3 0 5.2-0.9 0.8-0.8 0.8-2.2 0.8-5.1v-50.8c0-0.5 0-0.7 0-0.9-0.1-0.2-0.3-0.3-0.6-0.6l-17.1-15.4c-0.3-0.3-0.4-0.4-0.6-0.5-0.2 0-0.4 0-0.8 0h-57.4c-2.8 0-4.2 0-5.1 0.9z"/>
	<path id="Layer" fill-rule="evenodd" class="s1" d="m60.3 75.6v-20.7c0-1.9 0-2.9-0.6-3.4-0.5-0.6-1.5-0.6-3.4-0.6h-33.2c-1.9 0-2.8 0-3.4 0.6-0.6 0.5-0.6 1.5-0.6 3.4v20.7"/>
	<path id="Layer" fill-rule="evenodd" class="s2" d="m19.1 22h22.9"/>
	<path id="Layer" fill-rule="evenodd" class="s1" d="m0.8 7.4c-0.1-2.9-0.1-4.3 0.8-5.1 0.9-0.9 2.3-0.9 5.2-0.9h57.3c0.4 0 0.6 0 0.8 0 0.2 0.1 0.3 0.2 0.6 0.5l17.1 15.4c0.3 0.3 0.5 0.4 0.6 0.6 0.1 0.2 0.1 0.4 0.1 0.9v50.8c0 2.9 0 4.3-0.9 5.1-0.9 0.9-2.3 0.9-5.1 0.9h-70.5c-2.9 0-4.3 0-5.2-0.9-0.8-0.8-0.8-2.2-0.8-5.1z"/>
</svg>