<svg width="72" height="89" viewBox="0 0 72 89" fill="none" xmlns="http://www.w3.org/2000/svg">
<mask id="mask0_301_157" style="mask-type:alpha" maskUnits="userSpaceOnUse" x="0" y="0" width="12" height="11">
<path d="M5.7904 10.5958C8.67796 10.5958 11.0188 8.26208 11.0188 5.38333C11.0188 2.50457 8.67796 0.170898 5.7904 0.170898C2.90284 0.170898 0.562012 2.50457 0.562012 5.38333C0.562012 8.26208 2.90284 10.5958 5.7904 10.5958Z" fill="url(#paint0_linear_301_157)"/>
</mask>
<g mask="url(#mask0_301_157)">
<path d="M5.7904 10.5958C8.67796 10.5958 11.0188 8.26208 11.0188 5.38333C11.0188 2.50457 8.67796 0.170898 5.7904 0.170898C2.90284 0.170898 0.562012 2.50457 0.562012 5.38333C0.562012 8.26208 2.90284 10.5958 5.7904 10.5958Z" fill="url(#paint1_linear_301_157)"/>
</g>
<mask id="mask1_301_157" style="mask-type:alpha" maskUnits="userSpaceOnUse" x="30" y="0" width="12" height="11">
<path d="M36.0717 10.5958C38.9592 10.5958 41.3 8.26208 41.3 5.38333C41.3 2.50457 38.9592 0.170898 36.0717 0.170898C33.1841 0.170898 30.8433 2.50457 30.8433 5.38333C30.8433 8.26208 33.1841 10.5958 36.0717 10.5958Z" fill="url(#paint2_linear_301_157)"/>
</mask>
<g mask="url(#mask1_301_157)">
<path d="M36.0717 10.5958C38.9592 10.5958 41.3 8.26208 41.3 5.38333C41.3 2.50457 38.9592 0.170898 36.0717 0.170898C33.1841 0.170898 30.8433 2.50457 30.8433 5.38333C30.8433 8.26208 33.1841 10.5958 36.0717 10.5958Z" fill="url(#paint3_linear_301_157)"/>
</g>
<mask id="mask2_301_157" style="mask-type:alpha" maskUnits="userSpaceOnUse" x="61" y="0" width="11" height="11">
<path d="M66.3526 10.5958C69.2402 10.5958 71.581 8.26208 71.581 5.38333C71.581 2.50457 69.2402 0.170898 66.3526 0.170898C63.4651 0.170898 61.1243 2.50457 61.1243 5.38333C61.1243 8.26208 63.4651 10.5958 66.3526 10.5958Z" fill="url(#paint4_linear_301_157)"/>
</mask>
<g mask="url(#mask2_301_157)">
<path d="M66.3526 10.5958C69.2402 10.5958 71.581 8.26208 71.581 5.38333C71.581 2.50457 69.2402 0.170898 66.3526 0.170898C63.4651 0.170898 61.1243 2.50457 61.1243 5.38333C61.1243 8.26208 63.4651 10.5958 66.3526 10.5958Z" fill="url(#paint5_linear_301_157)"/>
</g>
<mask id="mask3_301_157" style="mask-type:alpha" maskUnits="userSpaceOnUse" x="0" y="26" width="12" height="11">
<path d="M5.7904 36.7121C8.67796 36.7121 11.0188 34.3784 11.0188 31.4996C11.0188 28.6208 8.67796 26.2871 5.7904 26.2871C2.90284 26.2871 0.562012 28.6208 0.562012 31.4996C0.562012 34.3784 2.90284 36.7121 5.7904 36.7121Z" fill="url(#paint6_linear_301_157)"/>
</mask>
<g mask="url(#mask3_301_157)">
<path d="M5.7904 36.7121C8.67796 36.7121 11.0188 34.3784 11.0188 31.4996C11.0188 28.6208 8.67796 26.2871 5.7904 26.2871C2.90284 26.2871 0.562012 28.6208 0.562012 31.4996C0.562012 34.3784 2.90284 36.7121 5.7904 36.7121Z" fill="url(#paint7_linear_301_157)"/>
</g>
<mask id="mask4_301_157" style="mask-type:alpha" maskUnits="userSpaceOnUse" x="30" y="26" width="12" height="11">
<path d="M36.0717 36.7121C38.9592 36.7121 41.3 34.3784 41.3 31.4996C41.3 28.6208 38.9592 26.2871 36.0717 26.2871C33.1841 26.2871 30.8433 28.6208 30.8433 31.4996C30.8433 34.3784 33.1841 36.7121 36.0717 36.7121Z" fill="url(#paint8_linear_301_157)"/>
</mask>
<g mask="url(#mask4_301_157)">
<path d="M36.0717 36.7121C38.9592 36.7121 41.3 34.3784 41.3 31.4996C41.3 28.6208 38.9592 26.2871 36.0717 26.2871C33.1841 26.2871 30.8433 28.6208 30.8433 31.4996C30.8433 34.3784 33.1841 36.7121 36.0717 36.7121Z" fill="url(#paint9_linear_301_157)"/>
</g>
<mask id="mask5_301_157" style="mask-type:alpha" maskUnits="userSpaceOnUse" x="61" y="26" width="11" height="11">
<path d="M66.3526 36.7121C69.2402 36.7121 71.581 34.3784 71.581 31.4996C71.581 28.6208 69.2402 26.2871 66.3526 26.2871C63.4651 26.2871 61.1243 28.6208 61.1243 31.4996C61.1243 34.3784 63.4651 36.7121 66.3526 36.7121Z" fill="url(#paint10_linear_301_157)"/>
</mask>
<g mask="url(#mask5_301_157)">
<path d="M66.3526 36.7121C69.2402 36.7121 71.581 34.3784 71.581 31.4996C71.581 28.6208 69.2402 26.2871 66.3526 26.2871C63.4651 26.2871 61.1243 28.6208 61.1243 31.4996C61.1243 34.3784 63.4651 36.7121 66.3526 36.7121Z" fill="url(#paint11_linear_301_157)"/>
</g>
<mask id="mask6_301_157" style="mask-type:alpha" maskUnits="userSpaceOnUse" x="0" y="52" width="12" height="11">
<path d="M5.7904 62.883C8.67796 62.883 11.0188 60.5492 11.0188 57.6705C11.0188 54.7917 8.67796 52.458 5.7904 52.458C2.90284 52.458 0.562012 54.7917 0.562012 57.6705C0.562012 60.5492 2.90284 62.883 5.7904 62.883Z" fill="url(#paint12_linear_301_157)"/>
</mask>
<g mask="url(#mask6_301_157)">
<path d="M5.7904 62.883C8.67796 62.883 11.0188 60.5492 11.0188 57.6705C11.0188 54.7917 8.67796 52.458 5.7904 52.458C2.90284 52.458 0.562012 54.7917 0.562012 57.6705C0.562012 60.5492 2.90284 62.883 5.7904 62.883Z" fill="url(#paint13_linear_301_157)"/>
</g>
<mask id="mask7_301_157" style="mask-type:alpha" maskUnits="userSpaceOnUse" x="30" y="52" width="12" height="11">
<path d="M36.0717 62.883C38.9592 62.883 41.3 60.5492 41.3 57.6705C41.3 54.7917 38.9592 52.458 36.0717 52.458C33.1841 52.458 30.8433 54.7917 30.8433 57.6705C30.8433 60.5492 33.1841 62.883 36.0717 62.883Z" fill="url(#paint14_linear_301_157)"/>
</mask>
<g mask="url(#mask7_301_157)">
<path d="M36.0717 62.883C38.9592 62.883 41.3 60.5492 41.3 57.6705C41.3 54.7917 38.9592 52.458 36.0717 52.458C33.1841 52.458 30.8433 54.7917 30.8433 57.6705C30.8433 60.5492 33.1841 62.883 36.0717 62.883Z" fill="url(#paint15_linear_301_157)"/>
</g>
<mask id="mask8_301_157" style="mask-type:alpha" maskUnits="userSpaceOnUse" x="61" y="52" width="11" height="11">
<path d="M66.3526 62.883C69.2402 62.883 71.581 60.5492 71.581 57.6705C71.581 54.7917 69.2402 52.458 66.3526 52.458C63.4651 52.458 61.1243 54.7917 61.1243 57.6705C61.1243 60.5492 63.4651 62.883 66.3526 62.883Z" fill="url(#paint16_linear_301_157)"/>
</mask>
<g mask="url(#mask8_301_157)">
<path d="M66.3526 62.883C69.2402 62.883 71.581 60.5492 71.581 57.6705C71.581 54.7917 69.2402 52.458 66.3526 52.458C63.4651 52.458 61.1243 54.7917 61.1243 57.6705C61.1243 60.5492 63.4651 62.883 66.3526 62.883Z" fill="url(#paint17_linear_301_157)"/>
</g>
<mask id="mask9_301_157" style="mask-type:alpha" maskUnits="userSpaceOnUse" x="0" y="78" width="12" height="11">
<path d="M5.7904 89.0002C8.67796 89.0002 11.0188 86.6665 11.0188 83.7877C11.0188 80.9089 8.67796 78.5752 5.7904 78.5752C2.90284 78.5752 0.562012 80.9089 0.562012 83.7877C0.562012 86.6665 2.90284 89.0002 5.7904 89.0002Z" fill="url(#paint18_linear_301_157)"/>
</mask>
<g mask="url(#mask9_301_157)">
<path d="M5.7904 89.0002C8.67796 89.0002 11.0188 86.6665 11.0188 83.7877C11.0188 80.9089 8.67796 78.5752 5.7904 78.5752C2.90284 78.5752 0.562012 80.9089 0.562012 83.7877C0.562012 86.6665 2.90284 89.0002 5.7904 89.0002Z" fill="url(#paint19_linear_301_157)"/>
</g>
<mask id="mask10_301_157" style="mask-type:alpha" maskUnits="userSpaceOnUse" x="30" y="78" width="12" height="11">
<path d="M36.0717 89.0002C38.9592 89.0002 41.3 86.6665 41.3 83.7877C41.3 80.9089 38.9592 78.5752 36.0717 78.5752C33.1841 78.5752 30.8433 80.9089 30.8433 83.7877C30.8433 86.6665 33.1841 89.0002 36.0717 89.0002Z" fill="url(#paint20_linear_301_157)"/>
</mask>
<g mask="url(#mask10_301_157)">
<path d="M36.0717 89.0002C38.9592 89.0002 41.3 86.6665 41.3 83.7877C41.3 80.9089 38.9592 78.5752 36.0717 78.5752C33.1841 78.5752 30.8433 80.9089 30.8433 83.7877C30.8433 86.6665 33.1841 89.0002 36.0717 89.0002Z" fill="url(#paint21_linear_301_157)"/>
</g>
<mask id="mask11_301_157" style="mask-type:alpha" maskUnits="userSpaceOnUse" x="61" y="78" width="11" height="11">
<path d="M66.3526 89.0002C69.2402 89.0002 71.581 86.6665 71.581 83.7877C71.581 80.9089 69.2402 78.5752 66.3526 78.5752C63.4651 78.5752 61.1243 80.9089 61.1243 83.7877C61.1243 86.6665 63.4651 89.0002 66.3526 89.0002Z" fill="url(#paint22_linear_301_157)"/>
</mask>
<g mask="url(#mask11_301_157)">
<path d="M66.3526 89.0002C69.2402 89.0002 71.581 86.6665 71.581 83.7877C71.581 80.9089 69.2402 78.5752 66.3526 78.5752C63.4651 78.5752 61.1243 80.9089 61.1243 83.7877C61.1243 86.6665 63.4651 89.0002 66.3526 89.0002Z" fill="url(#paint23_linear_301_157)"/>
</g>
<defs>
<linearGradient id="paint0_linear_301_157" x1="38.4623" y1="88.062" x2="-32.9381" y2="-93.7404" gradientUnits="userSpaceOnUse">
<stop/>
<stop offset="1" stop-color="white"/>
</linearGradient>
<linearGradient id="paint1_linear_301_157" x1="38.4623" y1="88.062" x2="-32.9381" y2="-93.7404" gradientUnits="userSpaceOnUse">
<stop stop-color="#97C3F9"/>
<stop offset="1" stop-color="#93C1F9"/>
</linearGradient>
<linearGradient id="paint2_linear_301_157" x1="64.6668" y1="77.7707" x2="-6.7336" y2="-104.032" gradientUnits="userSpaceOnUse">
<stop/>
<stop offset="1" stop-color="white"/>
</linearGradient>
<linearGradient id="paint3_linear_301_157" x1="64.6668" y1="77.7707" x2="-6.7336" y2="-104.032" gradientUnits="userSpaceOnUse">
<stop stop-color="#97C3F9"/>
<stop offset="1" stop-color="#93C1F9"/>
</linearGradient>
<linearGradient id="paint4_linear_301_157" x1="90.8711" y1="67.4793" x2="19.4707" y2="-114.323" gradientUnits="userSpaceOnUse">
<stop/>
<stop offset="1" stop-color="white"/>
</linearGradient>
<linearGradient id="paint5_linear_301_157" x1="90.8711" y1="67.4793" x2="19.4707" y2="-114.323" gradientUnits="userSpaceOnUse">
<stop stop-color="#97C3F9"/>
<stop offset="1" stop-color="#93C1F9"/>
</linearGradient>
<linearGradient id="paint6_linear_301_157" x1="29.5199" y1="91.5746" x2="-41.8816" y2="-90.2292" gradientUnits="userSpaceOnUse">
<stop/>
<stop offset="1" stop-color="white"/>
</linearGradient>
<linearGradient id="paint7_linear_301_157" x1="29.5199" y1="91.5746" x2="-41.8816" y2="-90.2292" gradientUnits="userSpaceOnUse">
<stop stop-color="#97C3F9"/>
<stop offset="1" stop-color="#93C1F9"/>
</linearGradient>
<linearGradient id="paint8_linear_301_157" x1="55.7244" y1="81.2829" x2="-15.6772" y2="-100.521" gradientUnits="userSpaceOnUse">
<stop/>
<stop offset="1" stop-color="white"/>
</linearGradient>
<linearGradient id="paint9_linear_301_157" x1="55.7244" y1="81.2829" x2="-15.6772" y2="-100.521" gradientUnits="userSpaceOnUse">
<stop stop-color="#97C3F9"/>
<stop offset="1" stop-color="#93C1F9"/>
</linearGradient>
<linearGradient id="paint10_linear_301_157" x1="81.9287" y1="70.9915" x2="10.5271" y2="-110.812" gradientUnits="userSpaceOnUse">
<stop/>
<stop offset="1" stop-color="white"/>
</linearGradient>
<linearGradient id="paint11_linear_301_157" x1="81.9287" y1="70.9915" x2="10.5271" y2="-110.812" gradientUnits="userSpaceOnUse">
<stop stop-color="#97C3F9"/>
<stop offset="1" stop-color="#93C1F9"/>
</linearGradient>
<linearGradient id="paint12_linear_301_157" x1="20.5775" y1="95.0864" x2="-50.824" y2="-86.7172" gradientUnits="userSpaceOnUse">
<stop/>
<stop offset="1" stop-color="white"/>
</linearGradient>
<linearGradient id="paint13_linear_301_157" x1="20.5775" y1="95.0864" x2="-50.824" y2="-86.7172" gradientUnits="userSpaceOnUse">
<stop stop-color="#97C3F9"/>
<stop offset="1" stop-color="#93C1F9"/>
</linearGradient>
<linearGradient id="paint14_linear_301_157" x1="46.7821" y1="84.795" x2="-24.6196" y2="-97.0088" gradientUnits="userSpaceOnUse">
<stop/>
<stop offset="1" stop-color="white"/>
</linearGradient>
<linearGradient id="paint15_linear_301_157" x1="46.7821" y1="84.795" x2="-24.6196" y2="-97.0088" gradientUnits="userSpaceOnUse">
<stop stop-color="#97C3F9"/>
<stop offset="1" stop-color="#93C1F9"/>
</linearGradient>
<linearGradient id="paint16_linear_301_157" x1="72.9863" y1="74.5035" x2="1.58471" y2="-107.3" gradientUnits="userSpaceOnUse">
<stop/>
<stop offset="1" stop-color="white"/>
</linearGradient>
<linearGradient id="paint17_linear_301_157" x1="72.9863" y1="74.5035" x2="1.58471" y2="-107.3" gradientUnits="userSpaceOnUse">
<stop stop-color="#97C3F9"/>
<stop offset="1" stop-color="#93C1F9"/>
</linearGradient>
<linearGradient id="paint18_linear_301_157" x1="11.6352" y1="98.5991" x2="-59.7664" y2="-83.2045" gradientUnits="userSpaceOnUse">
<stop/>
<stop offset="1" stop-color="white"/>
</linearGradient>
<linearGradient id="paint19_linear_301_157" x1="11.6352" y1="98.5991" x2="-59.7664" y2="-83.2045" gradientUnits="userSpaceOnUse">
<stop stop-color="#97C3F9"/>
<stop offset="1" stop-color="#93C1F9"/>
</linearGradient>
<linearGradient id="paint20_linear_301_157" x1="37.8397" y1="88.3075" x2="-33.5619" y2="-93.4962" gradientUnits="userSpaceOnUse">
<stop/>
<stop offset="1" stop-color="white"/>
</linearGradient>
<linearGradient id="paint21_linear_301_157" x1="37.8397" y1="88.3075" x2="-33.5619" y2="-93.4962" gradientUnits="userSpaceOnUse">
<stop stop-color="#97C3F9"/>
<stop offset="1" stop-color="#93C1F9"/>
</linearGradient>
<linearGradient id="paint22_linear_301_157" x1="64.044" y1="78.0161" x2="-7.35763" y2="-103.788" gradientUnits="userSpaceOnUse">
<stop/>
<stop offset="1" stop-color="white"/>
</linearGradient>
<linearGradient id="paint23_linear_301_157" x1="64.044" y1="78.0161" x2="-7.35763" y2="-103.788" gradientUnits="userSpaceOnUse">
<stop stop-color="#97C3F9"/>
<stop offset="1" stop-color="#93C1F9"/>
</linearGradient>
</defs>
</svg>
